<?xml version="1.0" encoding="utf-8" ?>
<svg xmlns="http://www.w3.org/2000/svg" xmlns:xlink="http://www.w3.org/1999/xlink" width="512" height="512" viewBox="246 246 532 532">
	<path fill="#60A7AB" transform="scale(1 1)" d="M317.852 673.883C325.886 683.01 333.944 691.862 343.036 699.966Q345.035 701.742 347.071 703.477Q349.106 705.211 351.177 706.903Q353.248 708.595 355.354 710.243Q357.46 711.892 359.599 713.496Q361.739 715.101 363.911 716.661Q366.083 718.22 368.287 719.734Q370.492 721.249 372.727 722.717Q374.962 724.185 377.227 725.607Q379.492 727.029 381.786 728.403Q384.08 729.777 386.402 731.104Q388.725 732.43 391.074 733.708Q393.423 734.986 395.798 736.215Q398.173 737.444 400.573 738.623Q402.973 739.802 405.398 740.932Q407.822 742.061 410.269 743.14Q412.716 744.219 415.185 745.246Q417.653 746.274 420.143 747.251Q422.633 748.227 425.142 749.151Q427.651 750.076 430.179 750.948Q432.707 751.82 435.253 752.64Q437.799 753.46 440.361 754.226Q442.923 754.993 445.5 755.706Q448.077 756.419 450.669 757.079Q453.26 757.739 455.865 758.344Q458.47 758.95 461.087 759.502Q463.703 760.053 466.331 760.551Q468.959 761.048 471.596 761.49Q474.233 761.933 476.879 762.321Q479.525 762.708 482.179 763.041Q484.832 763.374 487.492 763.651Q490.152 763.929 492.817 764.152Q495.482 764.374 498.151 764.541Q501.225 764.748 504.304 764.878Q507.382 765.009 510.463 765.063Q513.543 765.118 516.624 765.096Q519.706 765.074 522.785 764.976Q525.865 764.877 528.941 764.703Q532.017 764.528 535.088 764.277Q538.159 764.027 541.223 763.7Q544.287 763.373 547.341 762.971Q550.396 762.568 553.44 762.09Q556.484 761.612 559.515 761.059Q562.546 760.505 565.562 759.877Q568.579 759.249 571.579 758.546Q574.579 757.843 577.56 757.066Q580.542 756.289 583.504 755.439Q586.465 754.588 589.404 753.665Q592.344 752.741 595.26 751.745Q598.175 750.749 601.065 749.681Q603.956 748.612 606.818 747.473Q609.681 746.334 612.515 745.124Q615.348 743.914 618.151 742.634Q620.954 741.354 623.724 740.005Q626.495 738.657 629.231 737.24Q631.967 735.823 634.667 734.338Q637.367 732.854 640.029 731.303Q642.692 729.752 645.315 728.136Q647.938 726.52 650.52 724.839Q653.103 723.158 655.643 721.414Q658.183 719.67 660.679 717.863Q663.175 716.056 665.625 714.189Q668.075 712.321 670.479 710.393Q672.882 708.465 675.237 706.478Q677.592 704.491 679.897 702.446C689.748 693.736 698.729 683.963 707.322 674.028C706.511 678.872 682.926 701.611 678.033 705.156C677.76 705.354 677.483 705.545 677.208 705.739C679.104 708.413 680.949 710.939 683.262 713.271L683.021 714.935C683.82 715.053 683.979 714.689 684.656 714.215C684.808 714.109 684.963 714.007 685.115 713.9C693.288 708.138 705.721 694.882 712.35 687.02C713.674 685.449 714.68 683.619 715.982 682.076C716.627 681.31 717.377 680.772 718.363 680.66Q716.424 683.098 714.427 685.489Q712.429 687.88 710.375 690.222Q708.321 692.564 706.211 694.856Q704.101 697.148 701.936 699.388Q699.771 701.628 697.553 703.816Q695.335 706.003 693.065 708.137Q690.795 710.27 688.474 712.348Q686.153 714.426 683.783 716.448Q681.412 718.47 678.994 720.433Q676.576 722.397 674.111 724.302Q671.646 726.207 669.136 728.052Q666.625 729.898 664.072 731.682Q661.518 733.466 658.922 735.188Q656.326 736.91 653.689 738.568Q651.052 740.227 648.376 741.822Q645.7 743.417 642.986 744.947Q640.272 746.477 637.522 747.941Q634.772 749.405 631.988 750.803Q629.204 752.2 626.387 753.53Q623.569 754.86 620.721 756.122Q617.873 757.383 614.995 758.576Q612.117 759.768 609.211 760.891Q606.305 762.014 603.373 763.067Q600.441 764.119 597.484 765.101Q594.528 766.083 591.548 766.993Q588.569 767.903 585.568 768.741Q582.568 769.579 579.548 770.344Q576.528 771.11 573.491 771.802Q570.453 772.495 567.4 773.114Q564.347 773.733 561.28 774.278Q558.213 774.824 555.133 775.295Q552.054 775.766 548.964 776.163Q545.619 776.572 542.264 776.899Q538.91 777.226 535.549 777.47Q532.187 777.714 528.821 777.875Q525.454 778.036 522.085 778.113Q518.716 778.191 515.345 778.186Q511.975 778.181 508.606 778.092Q505.237 778.004 501.871 777.832Q498.505 777.66 495.145 777.406Q491.784 777.151 488.431 776.814Q485.077 776.477 481.733 776.057Q478.389 775.637 475.057 775.135Q471.724 774.632 468.405 774.048Q465.086 773.463 461.782 772.797Q458.478 772.131 455.192 771.384Q451.906 770.636 448.639 769.808Q445.372 768.98 442.126 768.071Q438.881 767.163 435.659 766.175Q432.437 765.186 429.24 764.119Q426.043 763.051 422.874 761.905Q419.704 760.759 416.564 759.535Q413.424 758.311 410.315 757.01Q407.206 755.71 404.13 754.332Q401.054 752.955 398.013 751.502Q394.972 750.049 391.968 748.522Q388.963 746.995 385.998 745.394Q383.032 743.793 380.107 742.12Q377.181 740.446 374.298 738.701Q371.415 736.955 368.576 735.139Q365.736 733.324 362.943 731.438Q360.149 729.553 357.403 727.599Q354.657 725.646 351.96 723.625Q349.263 721.604 346.616 719.517C335.032 710.49 317.159 694.425 308.669 682.688C312.618 683.827 327.435 703.98 334.505 707.595C338.135 706.83 341.827 704.939 345.133 703.268C335.514 694.116 325.774 685.142 317.506 674.698L317.852 673.883Z"/>
	<path fill="#BE9985" transform="scale(1 1)" d="M258.293 432.875L259.259 432.492C271.447 394.298 292.351 357.419 320.535 328.71C324.619 324.55 328.929 319.448 333.802 316.257C336.484 316.27 335.949 317.969 338.845 315.073C338.952 314.966 339.056 314.855 339.162 314.746L339.661 314.663C339.56 314.767 339.457 314.87 339.358 314.976C337.478 316.989 335.768 320.422 336.02 323.244C336.096 324.098 336.058 323.852 336.744 324.383C337.894 323.444 338.431 323.067 338.848 321.576L339.469 321.31L339.188 322.984L339.728 323.46C340.925 323.069 341.121 323.147 341.781 322.101L341.702 321.024L342.86 321.329L343.772 320.554L344.197 320.771C341.296 324.309 337.48 327.275 334.172 330.443Q325.963 338.39 318.512 347.052C296.475 372.821 279.523 404.834 269.689 437.223C268.01 442.756 265.923 448.683 265.225 454.422L265.69 454.898C263.636 465.311 261.637 475.783 260.602 486.356Q260.325 489.086 260.107 491.822Q259.89 494.558 259.731 497.298Q259.573 500.038 259.474 502.781Q259.375 505.524 259.335 508.268Q259.296 511.012 259.316 513.756Q259.336 516.501 259.415 519.244Q259.494 521.988 259.633 524.729Q259.772 527.47 259.97 530.207Q260.168 532.944 260.425 535.677Q260.682 538.409 260.998 541.135Q261.315 543.862 261.69 546.58Q262.066 549.299 262.5 552.009Q262.934 554.719 263.427 557.419Q263.919 560.119 264.47 562.807Q265.021 565.496 265.631 568.172Q266.24 570.848 266.907 573.51Q267.574 576.173 268.298 578.82Q269.023 581.467 269.805 584.098Q270.586 586.729 271.425 589.342Q272.263 591.955 273.158 594.55Q274.053 597.144 275.004 599.719Q275.954 602.293 276.961 604.847Q277.967 607.4 279.029 609.931Q280.09 612.462 281.206 614.969Q282.322 617.477 283.492 619.959Q284.662 622.442 285.886 624.899Q287.109 627.355 288.386 629.785Q289.662 632.214 290.991 634.616Q292.32 637.017 293.7 639.389Q295.081 641.761 296.512 644.103Q297.944 646.445 299.426 648.755Q300.907 651.065 302.439 653.342C307.207 660.46 312.538 667.172 317.852 673.883L317.506 674.698C325.774 685.142 335.514 694.116 345.133 703.268C341.827 704.939 338.135 706.83 334.505 707.595C327.435 703.98 312.618 683.827 308.669 682.688C306.923 681.397 305.193 678.764 303.821 677.042C292.475 662.803 282.875 647.04 274.533 630.884Q273.098 628.043 271.732 625.168Q270.367 622.293 269.07 619.386Q267.774 616.479 266.549 613.542Q265.323 610.605 264.169 607.639Q263.014 604.672 261.932 601.679Q260.849 598.686 259.839 595.668Q258.829 592.65 257.892 589.608Q256.954 586.566 256.091 583.503Q255.228 580.44 254.438 577.356Q253.649 574.273 252.934 571.171Q252.219 568.07 251.58 564.952Q250.94 561.834 250.375 558.702Q249.811 555.569 249.322 552.424Q248.833 549.279 248.421 546.123Q248.008 542.968 247.671 539.803Q247.335 536.638 247.074 533.466Q246.814 530.293 246.631 527.116Q246.447 523.938 246.34 520.757Q246.233 517.576 246.203 514.394Q246.173 511.211 246.219 508.029Q246.266 504.846 246.389 501.666Q246.512 498.485 246.712 495.309Q246.912 492.132 247.188 488.961Q247.465 485.791 247.818 482.628Q248.17 479.464 248.599 476.311Q249.028 473.157 249.533 470.014Q250.038 466.872 250.618 463.742Q251.199 460.613 251.855 457.498Q252.51 454.384 253.241 451.286Q253.972 448.188 254.777 445.109Q255.582 442.03 256.461 438.971Q257.34 435.912 258.293 432.875Z"/>
	<defs>
		<linearGradient id="gradient_0" gradientUnits="userSpaceOnUse" x1="514.08984" y1="246.15221" x2="515.76648" y2="333.35941">
			<stop offset="0" stop-color="#D15D4D"/>
			<stop offset="1" stop-color="#D67B61"/>
		</linearGradient>
	</defs>
	<path fill="url(#gradient_0)" transform="scale(1 1)" d="M258.293 432.875C262.287 419.131 268.011 405.882 274.416 393.101Q275.535 390.834 276.697 388.59Q277.859 386.345 279.064 384.123Q280.268 381.901 281.515 379.702Q282.762 377.503 284.05 375.328Q285.339 373.154 286.669 371.004Q287.998 368.855 289.369 366.731Q290.739 364.607 292.15 362.509Q293.561 360.412 295.012 358.342Q296.462 356.272 297.952 354.23Q299.442 352.188 300.97 350.175Q302.499 348.162 304.065 346.178Q305.632 344.194 307.236 342.241Q308.84 340.288 310.481 338.365Q312.122 336.443 313.8 334.552Q315.477 332.661 317.191 330.803Q318.904 328.944 320.652 327.119Q322.401 325.293 324.184 323.501Q325.967 321.71 327.784 319.952Q329.6 318.195 331.45 316.473Q333.3 314.75 335.183 313.063Q337.065 311.376 338.98 309.726Q340.894 308.075 342.839 306.462Q344.785 304.848 346.761 303.271Q348.737 301.695 350.742 300.157Q352.748 298.618 354.783 297.118Q356.817 295.619 358.88 294.158Q360.943 292.697 363.033 291.276Q365.124 289.855 367.241 288.474Q369.358 287.093 371.501 285.753Q373.644 284.412 375.812 283.113Q377.981 281.814 380.173 280.556Q382.366 279.299 384.582 278.083Q387.456 276.509 390.368 275.007Q393.279 273.504 396.228 272.075Q399.176 270.645 402.159 269.289Q405.142 267.933 408.157 266.651Q411.173 265.37 414.219 264.163Q417.266 262.957 420.341 261.826Q423.416 260.696 426.519 259.642Q429.621 258.588 432.749 257.611Q435.877 256.635 439.028 255.736Q442.179 254.838 445.351 254.017Q448.523 253.197 451.715 252.456Q454.906 251.714 458.116 251.053Q461.325 250.391 464.549 249.809Q467.773 249.226 471.011 248.725Q474.249 248.223 477.499 247.801Q480.748 247.38 484.007 247.039Q487.266 246.698 490.532 246.439Q493.798 246.179 497.07 246Q500.342 245.822 503.617 245.724Q506.892 245.627 510.169 245.61Q513.445 245.594 516.721 245.659Q519.997 245.725 523.271 245.871Q526.544 246.017 529.812 246.245Q533.081 246.472 536.343 246.781Q539.605 247.089 542.859 247.479Q546.112 247.868 549.355 248.338Q552.597 248.808 555.828 249.358Q559.058 249.908 562.273 250.539Q565.488 251.169 568.687 251.879Q571.886 252.588 575.066 253.377Q578.246 254.166 581.406 255.034Q584.566 255.901 587.703 256.847C653.295 276.094 711.779 322.455 744.576 382.606Q746.993 387.036 749.246 391.551Q751.5 396.067 753.586 400.662Q755.672 405.257 757.588 409.925Q759.504 414.593 761.247 419.329Q762.991 424.065 764.56 428.861Q766.128 433.657 767.52 438.508Q768.912 443.359 770.125 448.257Q771.338 453.155 772.37 458.095C773.291 462.57 774.768 467.898 774.838 472.455C776.951 482.399 777.5 492.983 777.933 503.122Q778.036 505.67 778.089 508.219Q778.142 510.768 778.146 513.318Q778.15 515.868 778.105 518.417Q778.06 520.967 777.965 523.515Q777.871 526.063 777.727 528.609Q777.583 531.154 777.39 533.697Q777.197 536.239 776.955 538.778Q776.713 541.316 776.422 543.849Q776.13 546.382 775.79 548.909Q775.45 551.436 775.061 553.956Q774.672 556.476 774.235 558.988Q773.797 561.5 773.311 564.003Q772.825 566.506 772.291 568.999Q771.756 571.492 771.174 573.975Q770.591 576.457 769.961 578.928Q769.33 581.399 768.652 583.857Q767.974 586.315 767.249 588.759Q766.523 591.203 765.751 593.633Q764.978 596.063 764.159 598.478Q763.339 600.892 762.473 603.291Q761.607 605.689 760.695 608.07Q759.783 610.451 758.825 612.814Q757.867 615.177 756.863 617.521Q755.86 619.865 754.811 622.189Q753.762 624.513 752.669 626.817Q751.575 629.12 750.437 631.402Q749.3 633.684 748.118 635.943Q746.936 638.203 745.711 640.439Q744.486 642.675 743.218 644.887Q741.949 647.099 740.639 649.286Q739.328 651.473 737.975 653.635Q736.622 655.796 735.228 657.931C732.335 662.374 721.853 678.05 718.363 680.66C717.377 680.772 716.627 681.31 715.982 682.076C714.68 683.619 713.674 685.449 712.35 687.02C705.721 694.882 693.288 708.138 685.115 713.9C684.963 714.007 684.808 714.109 684.656 714.215C683.979 714.689 683.82 715.053 683.021 714.935L683.262 713.271C680.949 710.939 679.104 708.413 677.208 705.739C677.483 705.545 677.76 705.354 678.033 705.156C682.926 701.611 706.511 678.872 707.322 674.028C710.446 668.96 714.964 664.26 718.533 659.417C723.279 652.978 727.231 646.11 731.22 639.191Q733.47 635.294 735.578 631.32Q737.686 627.345 739.65 623.297Q741.614 619.249 743.432 615.133Q745.249 611.017 746.917 606.838Q748.586 602.66 750.103 598.424Q751.62 594.188 752.984 589.901Q754.348 585.613 755.557 581.279Q756.766 576.945 757.819 572.571Q758.871 568.196 759.766 563.787Q760.661 559.377 761.397 554.939Q762.132 550.5 762.708 546.038Q763.284 541.575 763.699 537.095Q764.114 532.615 764.368 528.123Q764.622 523.631 764.714 519.132Q764.807 514.634 764.737 510.135Q764.668 505.636 764.437 501.143C763.926 489.33 762.081 477.607 760.318 465.932C757.932 459.259 756.516 448.782 754.414 441.236C749.416 423.292 741.81 406.153 732.999 389.791C700.433 329.324 647.377 287.923 581.77 268.356C519.35 249.74 449.109 257.846 392.002 288.896C334.596 320.108 295.001 368.358 272.975 429.61C270 437.882 268.179 446.481 265.69 454.898L265.225 454.422C265.923 448.683 268.01 442.756 269.689 437.223C279.523 404.834 296.475 372.821 318.512 347.052Q325.963 338.39 334.172 330.443C337.48 327.275 341.296 324.309 344.197 320.771L343.772 320.554L342.86 321.329L341.702 321.024L341.781 322.101C341.121 323.147 340.925 323.069 339.728 323.46L339.188 322.984L339.469 321.31L338.848 321.576C338.431 323.067 337.894 323.444 336.744 324.383C336.058 323.852 336.096 324.098 336.02 323.244C335.768 320.422 337.478 316.989 339.358 314.976C339.457 314.87 339.56 314.767 339.661 314.663L339.162 314.746C339.056 314.855 338.952 314.966 338.845 315.073C335.949 317.969 336.484 316.27 333.802 316.257C328.929 319.448 324.619 324.55 320.535 328.71C292.351 357.419 271.447 394.298 259.259 432.492L258.293 432.875Z"/>
	<path fill="#BE9985" transform="scale(1 1)" d="M760.318 465.932L760.802 465.128C756.662 432.936 738.28 393.2 719.943 366.642C717.305 362.823 715.018 358.441 711.732 355.158C705.949 349.381 701.581 342.094 695.744 336.177C694.37 334.783 690.993 332.04 690.803 330.169C691.493 328.648 692.8 328.123 694.189 327.349C695.92 326.384 696.615 325.1 697.576 323.415C699.334 323.922 701.872 327.112 703.243 328.506C718.681 344.203 732.906 363.224 743.522 382.499C757.963 408.719 767.401 436.308 772.869 465.649C773.141 467.106 773.518 471.684 774.598 472.402C774.666 472.447 774.758 472.437 774.838 472.455C776.951 482.399 777.5 492.983 777.933 503.122Q778.036 505.67 778.089 508.219Q778.142 510.768 778.146 513.318Q778.15 515.868 778.105 518.417Q778.06 520.967 777.965 523.515Q777.871 526.063 777.727 528.609Q777.583 531.154 777.39 533.697Q777.197 536.239 776.955 538.778Q776.713 541.316 776.422 543.849Q776.13 546.382 775.79 548.909Q775.45 551.436 775.061 553.956Q774.672 556.476 774.235 558.988Q773.797 561.5 773.311 564.003Q772.825 566.506 772.291 568.999Q771.756 571.492 771.174 573.975Q770.591 576.457 769.961 578.928Q769.33 581.399 768.652 583.857Q767.974 586.315 767.249 588.759Q766.523 591.203 765.751 593.633Q764.978 596.063 764.159 598.478Q763.339 600.892 762.473 603.291Q761.607 605.689 760.695 608.07Q759.783 610.451 758.825 612.814Q757.867 615.177 756.863 617.521Q755.86 619.865 754.811 622.189Q753.762 624.513 752.669 626.817Q751.575 629.12 750.437 631.402Q749.3 633.684 748.118 635.943Q746.936 638.203 745.711 640.439Q744.486 642.675 743.218 644.887Q741.949 647.099 740.639 649.286Q739.328 651.473 737.975 653.635Q736.622 655.796 735.228 657.931C732.335 662.374 721.853 678.05 718.363 680.66C717.377 680.772 716.627 681.31 715.982 682.076C714.68 683.619 713.674 685.449 712.35 687.02C705.721 694.882 693.288 708.138 685.115 713.9C684.963 714.007 684.808 714.109 684.656 714.215C683.979 714.689 683.82 715.053 683.021 714.935L683.262 713.271C680.949 710.939 679.104 708.413 677.208 705.739C677.483 705.545 677.76 705.354 678.033 705.156C682.926 701.611 706.511 678.872 707.322 674.028C710.446 668.96 714.964 664.26 718.533 659.417C723.279 652.978 727.231 646.11 731.22 639.191Q733.47 635.294 735.578 631.32Q737.686 627.345 739.65 623.297Q741.614 619.249 743.432 615.133Q745.249 611.017 746.917 606.838Q748.586 602.66 750.103 598.424Q751.62 594.188 752.984 589.901Q754.348 585.613 755.557 581.279Q756.766 576.945 757.819 572.571Q758.871 568.196 759.766 563.787Q760.661 559.377 761.397 554.939Q762.132 550.5 762.708 546.038Q763.284 541.575 763.699 537.095Q764.114 532.615 764.368 528.123Q764.622 523.631 764.714 519.132Q764.807 514.634 764.737 510.135Q764.668 505.636 764.437 501.143C763.926 489.33 762.081 477.607 760.318 465.932Z"/>
	<path fill="#FEFEFE" transform="scale(1 1)" d="M265.69 454.898C268.179 446.481 270 437.882 272.975 429.61C295.001 368.358 334.596 320.108 392.002 288.896C449.109 257.846 519.35 249.74 581.77 268.356C647.377 287.923 700.433 329.324 732.999 389.791C741.81 406.153 749.416 423.292 754.414 441.236C756.516 448.782 757.932 459.259 760.318 465.932C762.081 477.607 763.926 489.33 764.437 501.143Q764.668 505.636 764.737 510.135Q764.807 514.634 764.714 519.132Q764.622 523.631 764.368 528.123Q764.114 532.615 763.699 537.095Q763.284 541.575 762.708 546.038Q762.132 550.5 761.397 554.939Q760.661 559.377 759.766 563.787Q758.871 568.196 757.819 572.571Q756.766 576.945 755.557 581.279Q754.348 585.613 752.984 589.901Q751.62 594.188 750.103 598.424Q748.586 602.66 746.917 606.838Q745.249 611.017 743.432 615.133Q741.614 619.249 739.65 623.297Q737.686 627.345 735.578 631.32Q733.47 635.294 731.22 639.191C727.231 646.11 723.279 652.978 718.533 659.417C714.964 664.26 710.446 668.96 707.322 674.028C698.729 683.963 689.748 693.736 679.897 702.446Q677.592 704.491 675.237 706.478Q672.882 708.465 670.479 710.393Q668.075 712.321 665.625 714.188Q663.174 716.056 660.679 717.863Q658.183 719.67 655.643 721.414Q653.103 723.158 650.52 724.839Q647.938 726.52 645.315 728.136Q642.692 729.752 640.029 731.303Q637.367 732.854 634.667 734.338Q631.967 735.823 629.231 737.24Q626.495 738.657 623.724 740.005Q620.954 741.354 618.151 742.634Q615.348 743.914 612.515 745.124Q609.681 746.334 606.818 747.473Q603.956 748.612 601.065 749.681Q598.175 750.749 595.26 751.745Q592.344 752.741 589.404 753.665Q586.465 754.588 583.504 755.439Q580.542 756.289 577.56 757.066Q574.579 757.843 571.579 758.546Q568.579 759.249 565.562 759.877Q562.546 760.505 559.515 761.058Q556.484 761.612 553.44 762.09Q550.396 762.568 547.341 762.971Q544.287 763.373 541.223 763.7Q538.159 764.026 535.088 764.277Q532.017 764.528 528.941 764.703Q525.865 764.877 522.785 764.976Q519.706 765.074 516.624 765.096Q513.543 765.118 510.463 765.063Q507.382 765.009 504.304 764.878Q501.225 764.748 498.151 764.541Q495.482 764.374 492.817 764.152Q490.152 763.929 487.492 763.651Q484.832 763.374 482.179 763.041Q479.525 762.708 476.879 762.321Q474.233 761.933 471.596 761.49Q468.959 761.048 466.331 760.551Q463.704 760.053 461.087 759.502Q458.47 758.95 455.865 758.344Q453.261 757.739 450.669 757.079Q448.077 756.419 445.5 755.706Q442.923 754.993 440.361 754.226Q437.799 753.46 435.253 752.64Q432.707 751.82 430.179 750.948Q427.651 750.076 425.142 749.151Q422.633 748.227 420.143 747.251Q417.653 746.274 415.185 745.246Q412.716 744.219 410.269 743.14Q407.822 742.061 405.398 740.932Q402.973 739.802 400.573 738.623Q398.173 737.444 395.798 736.215Q393.423 734.986 391.074 733.708Q388.725 732.43 386.402 731.103Q384.08 729.777 381.786 728.403Q379.492 727.029 377.227 725.607Q374.962 724.185 372.727 722.717Q370.492 721.249 368.287 719.734Q366.083 718.22 363.911 716.66Q361.739 715.101 359.599 713.496Q357.46 711.892 355.354 710.243Q353.248 708.595 351.177 706.903Q349.106 705.211 347.071 703.477Q345.035 701.742 343.036 699.966C333.944 691.862 325.886 683.01 317.852 673.883C312.538 667.172 307.207 660.46 302.439 653.342Q300.907 651.065 299.426 648.755Q297.944 646.445 296.512 644.103Q295.081 641.761 293.7 639.389Q292.32 637.017 290.991 634.616Q289.662 632.214 288.386 629.785Q287.109 627.355 285.886 624.899Q284.662 622.442 283.492 619.959Q282.322 617.477 281.206 614.969Q280.09 612.462 279.029 609.931Q277.967 607.4 276.961 604.847Q275.954 602.293 275.004 599.719Q274.053 597.144 273.158 594.55Q272.263 591.955 271.425 589.342Q270.586 586.729 269.805 584.098Q269.023 581.467 268.298 578.82Q267.574 576.172 266.907 573.51Q266.24 570.848 265.631 568.172Q265.021 565.496 264.47 562.807Q263.919 560.119 263.427 557.419Q262.934 554.719 262.5 552.009Q262.066 549.299 261.69 546.58Q261.315 543.862 260.998 541.135Q260.682 538.409 260.425 535.677Q260.168 532.944 259.97 530.207Q259.772 527.47 259.633 524.729Q259.494 521.988 259.415 519.244Q259.336 516.501 259.316 513.756Q259.296 511.012 259.335 508.268Q259.375 505.524 259.474 502.781Q259.573 500.038 259.731 497.298Q259.89 494.558 260.107 491.822Q260.325 489.086 260.602 486.356C261.637 475.783 263.636 465.311 265.69 454.898Z"/>
	<path fill="#000101" transform="scale(1 1)" d="M629.25 567.093C629.32 565.286 629.172 563.602 630.281 562.076L631.099 562.036C632.363 563.878 632.037 565.682 631.954 567.801C631.696 568.151 631.309 568.451 630.991 568.749C629.807 568.346 629.878 568.201 629.25 567.093Z"/>
	<path fill="#000101" transform="scale(1 1)" d="M687.223 578.235C688.25 578.667 688.707 578.936 689.373 579.835C689.735 581.802 688.605 583.629 687.825 585.388C686.712 584.772 686.671 584.662 686.098 583.515C686.012 581.585 686.608 580.046 687.223 578.235Z"/>
	<path fill="#000101" transform="scale(1 1)" d="M476.811 578.596C478.304 579.058 478.543 578.945 479.364 580.241C479.399 582.082 478.199 583.769 477.332 585.347C476.318 585.547 476.835 585.586 475.79 585.139C475.435 582.962 476.277 580.704 476.811 578.596Z"/>
	<path fill="#000101" transform="scale(1 1)" d="M641.356 561.478C642.199 561.647 642.735 561.827 643.507 562.165C645.553 567.647 644.143 576.937 643.971 582.783C642.891 582.508 642.167 582.328 641.299 581.61C640.669 575.068 641.248 568.065 641.356 561.478Z"/>
	<path fill="#000101" transform="scale(1 1)" d="M589.851 561.13C590.743 561.317 591.218 561.463 591.925 562.046C593.422 566.033 593.082 578.321 592.049 582.566C591.146 582.481 590.921 582.432 590.095 581.963C588.387 577.46 589.578 566.211 589.851 561.13Z"/>
	<path fill="#000101" transform="scale(1 1)" d="M417.18 561.145C418.157 561.294 418.507 561.38 419.395 561.891C421.202 566.927 419.878 577.351 419.715 582.838C419.016 582.692 418.354 582.465 417.674 582.248C415.773 578.24 417.015 565.936 417.18 561.145Z"/>
	<path fill="#000101" transform="scale(1 1)" d="M495.298 561.353C496.104 561.542 496.612 561.744 497.342 562.101C499.15 566.422 498.131 578.001 497.602 582.879C496.786 582.689 496.329 582.522 495.602 582.156C493.866 578.108 494.589 565.953 495.298 561.353Z"/>
	<path fill="#000101" transform="scale(1 1)" d="M426.614 561.735C429.389 561.631 435.784 560.828 437.836 562.686L437.652 564.06L436.804 564.507C435.575 564.412 434.451 564.195 433.311 564.775C432.192 569.036 432.907 574.659 432.959 579.125C432.873 580.737 432.925 581.27 432.054 582.674C431.865 582.582 431.66 582.515 431.486 582.396C428.67 580.468 430.926 568.49 429.72 564.515C428.654 564.322 427.62 564.258 426.541 564.193C425.944 562.942 426.216 562.986 426.614 561.735Z"/>
	<path fill="#000101" transform="scale(1 1)" d="M650.229 561.955C653.088 561.805 660.739 560.903 663.107 562.47L663.203 563.82C661.788 564.903 660.214 564.402 658.518 565.007C657.132 567.866 658.028 574.542 658.086 577.926C658.103 578.818 658.131 579.695 658.044 580.583C657.913 581.91 657.965 581.927 656.972 582.735L656.103 582.563C654.394 579.512 655.387 574.79 655.455 571.394C655.502 569.056 655.707 566.4 654.004 564.645C653.032 564.621 651.964 564.705 651.095 564.212C650.497 563.872 650.397 562.605 650.229 561.955Z"/>
	<path fill="#60A7AB" transform="scale(1 1)" d="M493.059 668.448Q494.182 667.503 495.346 666.61L495.308 663.883C497.669 669.454 502.73 684.825 500.612 690.452L499.891 690.363C496.791 685.849 494.8 674.289 493.059 668.448Z"/>
	<path fill="#000101" transform="scale(1 1)" d="M287.064 561.948C289.481 561.845 294.348 561.083 296.376 562.468C297.002 562.896 296.78 562.905 296.862 563.794C295.236 564.877 291.787 564.408 289.774 564.439L289.685 570.523C292.416 570.406 295.007 569.993 297.107 571.894C296.745 572.622 296.456 572.847 295.848 573.363L289.838 573.492C289.969 576.916 290.136 579.204 288.524 582.361L287.631 582.416L287.95 582.855C285.961 578.994 287.045 566.583 287.064 561.948Z"/>
	<path fill="#60A7AB" transform="scale(1 1)" d="M486.64 663.339C486.696 662.38 486.757 661.47 486.949 660.528L487.665 660.384L487.958 661.702L488.809 661.926C491.352 669.119 493.311 677.955 494.482 685.502C494.808 687.601 495.4 690.299 494.11 692.059L492.995 691.754C492.236 690.867 491.966 690.342 491.78 689.183C490.51 681.305 486.771 670.873 486.64 663.339Z"/>
	<path fill="#60A7AB" transform="scale(1 1)" d="M480.821 665.481C480.908 664.301 480.876 662.962 481.422 661.893C481.787 661.179 482.795 661.133 483.513 660.907C484.458 666.087 489.706 689.676 488.521 692.736L487.13 693.159C486.213 692.6 486.093 692.529 485.793 691.442C485.338 689.797 485.362 687.946 485.043 686.249C483.746 679.353 482.299 672.341 480.821 665.481Z"/>
	<path fill="#000101" transform="scale(1 1)" d="M444.269 561.71C447.071 561.612 450.678 561.205 453.329 562.183L453.543 563.663L452.976 564.195C450.792 564.014 449.196 563.755 447.28 565.027C446.264 566.841 446.51 568.295 446.502 570.317C448.397 570.277 451.552 569.838 453.093 571.061L453.1 572.11L452.424 572.603C450.472 572.567 449.146 572.634 447.325 573.367C446.157 574.732 446.481 575.86 446.427 577.62C446.483 578.156 446.679 578.683 446.827 579.201C449.1 580.29 451.596 579.073 453.814 580.168L454.014 581.278C452.172 582.941 446.482 582.256 443.921 582.235C443.829 576.469 442.831 567.073 444.269 561.71Z"/>
	<path fill="#000101" transform="scale(1 1)" d="M462.824 561.516C464.115 561.419 465.713 561.28 466.992 561.511C468.332 561.753 468.964 562.645 469.764 563.644C470.212 564.202 470.086 563.885 469.986 564.72C468.351 564.737 466.419 564.287 464.863 564.48C463.486 564.65 463.337 564.965 462.665 566.025C463.091 571.51 468.265 570.013 470.458 573.812C471.295 575.262 471.358 577.392 470.78 578.948C470.054 580.901 468.245 581.614 466.505 582.437C464.119 582.315 461.978 582.067 460.175 580.353C459.421 579.636 459.619 579.639 459.582 578.682C460.922 578.257 461.759 578.63 463.094 578.913C464.893 579.294 466.376 579.762 467.989 578.712C468.085 578.247 468.185 577.904 468.129 577.405C467.662 573.274 462.666 572.557 460.36 569.864C459.58 568.953 459.03 567.894 459.236 566.652C459.571 564.63 461.365 562.82 462.824 561.516Z"/>
	<path fill="#000101" transform="scale(1 1)" d="M669.367 561.89C672.689 561.839 675.954 561.774 679.262 562.139C679.726 562.943 679.545 563.097 679.434 563.984C677.804 565.115 674.681 564.423 672.622 564.756C671.6 565.685 671.382 565.758 671.093 567.085C672.328 569.694 676.694 570.624 679.226 571.553L679.173 572.344C677.279 572.492 673.812 572.139 672.255 573.152L671.855 575.052Q671.854 575.849 671.875 576.645C671.905 577.473 671.914 578.354 672.612 578.89C674.025 579.976 675.536 579.837 677.206 579.7C678.282 579.612 679.04 579.486 680.084 579.827C680.368 581.001 680.421 580.428 679.902 581.544C676.581 582.413 672.789 582.092 669.36 582.077L669.367 561.89Z"/>
	<path fill="#000101" transform="scale(1 1)" d="M526.716 561.729C529.736 561.705 532.86 561.466 535.814 562.162C535.925 563.316 535.861 563.168 535.348 564.096C533.425 564.974 531.368 564.198 529.339 564.59C528.533 564.746 528.81 564.676 528.334 565.493C528.324 567.047 528.254 568.113 529.111 569.489C530.415 570.326 531.542 570.095 533.016 569.989C534.007 569.917 533.481 569.803 534.473 570.451C534.487 571.675 534.73 571.656 533.858 572.62C531.887 572.578 530.642 572.41 528.942 573.486C528.019 574.905 528.225 576.193 528.279 577.813L528.309 578.563L528.537 579.128C530.413 580.319 533.069 578.842 534.984 579.841C535.586 580.156 535.469 580.673 535.58 581.275L535.167 581.867C532.159 582.583 528.582 582.216 525.486 582.17C525.495 575.922 524.505 568.191 525.797 562.167L526.716 561.729Z"/>
	<path fill="#000101" transform="scale(1 1)" d="M566.041 561.021C567.031 561.093 568.041 561.294 568.992 561.579C570.489 562.028 571.237 562.946 571.963 564.26C569.969 565.816 566.705 563.672 564.241 565.98C563.888 569.892 570.712 571.322 572.449 575.423C573.012 576.752 573.133 578.231 572.383 579.518C571.063 581.785 568.609 582.332 566.222 582.752C565.115 582.404 563.62 581.977 562.673 581.296C561.674 580.579 561.081 579.832 560.95 578.639C562.769 578.073 565.111 579.484 567.072 579.563C568.438 579.619 569.41 579.21 570.354 578.271C570.135 574.738 562.956 571.902 561.361 568.297C560.769 566.959 560.77 566.09 561.327 564.741C562.149 562.747 564.201 561.826 566.041 561.021Z"/>
	<path fill="#60A7AB" transform="scale(1 1)" d="M474.844 662.97C475.925 662.593 477.036 662.276 478.129 661.932C478.731 666.308 483.258 691.419 482.136 693.595C481.055 693.9 481.141 693.879 480.153 693.332C476.402 687.478 474.943 670.147 474.844 662.97Z"/>
	<path fill="#000101" transform="scale(1 1)" d="M377.63 561.372C380.356 565.348 377.078 572.249 378.744 576.793C379.274 578.236 380.215 579.182 381.595 579.817C382.892 579.74 383.307 579.703 384.337 578.783C387.083 576.328 386.198 571.704 386.119 568.453C386.066 566.31 385.662 563.118 387.244 561.462L388.366 561.535C389.232 563.053 388.89 565.41 388.871 567.125C388.884 569.497 389.063 571.943 388.884 574.305C388.68 576.998 387.195 580.303 385.064 582.005C383.917 582.92 382.438 583.524 380.955 583.118C379.24 582.647 377.931 581.068 377.13 579.561C375.43 576.363 374.753 566.121 375.909 562.746C376.195 561.911 376.907 561.778 377.63 561.372Z"/>
	<path fill="#031617" transform="scale(1 1)" d="M622.15 568.348C622.312 571.87 623.397 579.791 620.947 582.589L620.407 582.142C619.161 578.403 618.577 566.44 619.727 562.791C620.005 561.907 619.782 562.24 620.687 561.767C624.023 563.399 627.158 571.109 628.951 574.395Q629.039 570.742 629.25 567.093C629.878 568.201 629.807 568.346 630.991 568.749C631.309 568.451 631.696 568.151 631.954 567.801C631.945 571.251 631.97 574.712 631.87 578.161C631.835 579.402 631.921 581.688 631.025 582.531C627.442 580.561 624.31 572.023 622.15 568.348Z"/>
	<path fill="#000101" transform="scale(1 1)" d="M604.022 561.549C605.473 561.423 607.224 561.22 608.607 561.805C610.128 562.447 611.29 563.576 611.893 565.116C612.331 566.235 612.421 566.244 611.926 567.388C609.498 567.293 608.403 565.057 606.27 564.269C605.251 563.892 604.972 564.061 604.028 564.439C603.598 565.037 603.268 565.599 603.065 566.316C602.255 569.188 601.825 575.724 603.71 578.142C604.644 579.339 605.117 579.406 606.515 579.763C607.857 579.463 608.901 579.148 609.73 577.907C610.47 576.801 610.271 576.146 610.056 574.947C608.723 573.676 607.944 573.942 606.145 573.823C605.599 573.402 605.509 572.992 605.24 572.372L605.78 571.773C608.089 571.091 610.542 571.259 612.932 571.251L612.869 580.096C610.873 581.405 609.012 582.576 606.54 582.519Q606.193 582.511 605.848 582.467Q605.503 582.422 605.165 582.342Q604.828 582.261 604.5 582.145Q604.173 582.028 603.859 581.878Q603.546 581.728 603.25 581.545Q602.955 581.362 602.68 581.149Q602.406 580.936 602.156 580.695Q601.905 580.454 601.682 580.188C599.412 577.53 598.916 573.422 599.294 570.068C599.737 566.13 600.94 563.956 604.022 561.549Z"/>
	<path fill="#000101" transform="scale(1 1)" d="M547.54 561.086C548.576 561.343 548.97 561.53 549.69 562.323C550.731 565.904 556.329 579.186 555.836 581.873L554.84 581.998C553.342 580.975 552.858 579.628 551.805 578.247C550.643 576.723 550.071 576.992 548.285 576.813C542.987 576.937 544.973 580.515 541.265 582.149L540.466 581.639C540.459 577.724 545.893 565.588 547.54 561.086Z"/>
	<path fill="#FEFEFE" transform="scale(1 1)" d="M548.209 566.884C549.437 568.696 550.267 571.797 550.306 573.971L549.333 574.872C548.344 574.73 547.495 574.608 546.575 574.206C545.738 571.648 547.232 569.27 548.209 566.884Z"/>
	<path fill="#031617" transform="scale(1 1)" d="M399.057 567.524C399.129 571.622 400.128 579 398.015 582.514L397.296 582.626C396.191 578.694 395.38 566.038 397.148 562.442C397.518 561.688 397.479 561.917 398.387 561.642C402.4 564.38 403.033 571.596 406.439 575.055C406.103 571.638 405.411 565.522 406.756 562.324C407.099 561.51 407.799 561.586 408.577 561.35C409.324 565.767 409.783 577.701 408.306 581.715L407.478 582.057C403.715 579.579 401.606 571.45 399.057 567.524Z"/>
	<path fill="#000101" transform="scale(1 1)" d="M406.439 575.055C406.103 571.638 405.411 565.522 406.756 562.324C407.099 561.51 407.799 561.586 408.577 561.35C408.557 561.543 408.536 561.735 408.518 561.928C408.087 566.591 408.65 571.262 408.238 575.912C407.737 574.735 407.942 575.333 407.621 574.118L406.962 575.439L406.64 575.517L406.439 575.055Z"/>
	<path fill="#000101" transform="scale(1 1)" d="M505.738 561.664C508.38 561.523 511.475 561.131 513.869 562.478C516.546 563.985 518.274 566.323 518.912 569.332C519.674 572.929 518.605 577.269 516.533 580.244C512.773 582.502 509.922 582.462 505.669 582.323Q505.592 571.993 505.738 561.664Z"/>
	<path fill="#FEFEFE" transform="scale(1 1)" d="M508.448 564.409C509.536 564.452 511.051 564.444 512.084 564.834C513.788 565.475 515 566.973 515.605 568.656C516.693 571.682 515.877 575.49 514.553 578.294C512.749 579.282 511.475 579.779 509.466 579.201C507.08 576.07 508.381 568.256 508.448 564.409Z"/>
	<path fill="#000101" transform="scale(1 1)" d="M346.319 561.618C349.712 561.547 352.549 561.495 355.371 563.648C357.697 565.422 359.097 567.976 359.342 570.893C359.643 574.481 358.154 577.971 355.802 580.585C353.662 581.82 350.676 582.792 348.186 582.67C347.08 582.615 346.534 582.324 345.802 581.501C345.439 577.697 344.592 564.408 346.319 561.618Z"/>
	<path fill="#FEFEFE" transform="scale(1 1)" d="M348.751 564.127C349.907 564.297 351.216 564.428 352.273 564.947C353.969 565.781 355.261 567.539 355.775 569.329C356.634 572.325 355.683 575.395 354.253 578.033C353.123 578.831 352.164 579.174 350.867 579.602C350.182 579.471 349.718 579.564 349.268 578.963C347.093 576.055 348.273 567.659 348.751 564.127Z"/>
	<path fill="#000101" transform="scale(1 1)" d="M330.652 561.089C331.588 561.154 332.529 561.302 333.418 561.611C335.326 562.273 336.796 564.153 337.61 565.932C339.222 569.458 339.021 573.967 337.554 577.502C336.323 580.469 334.694 581.579 331.81 582.779C330.493 582.584 329.126 582.417 327.935 581.785C325.662 580.579 324.301 578.176 323.675 575.751C322.756 572.189 323.215 567.971 325.121 564.799C326.544 562.431 328.054 561.778 330.652 561.089Z"/>
	<path fill="#FEFEFE" transform="scale(1 1)" d="M330.421 563.831C332.11 564.28 333.314 564.662 334.343 566.222C335.905 568.591 336.084 571.607 335.469 574.307C334.864 576.965 333.977 578.468 331.694 579.952C330.125 579.574 329.036 579.315 328.004 577.949C326.279 575.667 326.107 572.103 326.695 569.422C327.298 566.673 328.056 565.349 330.421 563.831Z"/>
	<defs>
		<linearGradient id="gradient_1" gradientUnits="userSpaceOnUse" x1="302.86761" y1="573.44196" x2="316.88361" y2="570.11707">
			<stop offset="0" stop-color="black"/>
			<stop offset="1" stop-color="#021B1C"/>
		</linearGradient>
	</defs>
	<path fill="url(#gradient_1)" transform="scale(1 1)" d="M307.562 561.56C308.844 561.46 310.149 561.347 311.42 561.617C313.45 562.05 315.188 563.601 316.297 565.3C318.175 568.178 318.572 572.009 317.82 575.313C317.044 578.725 315.573 580.53 312.637 582.317C311.468 582.528 310.3 582.735 309.112 582.57C307.144 582.298 305.421 581.139 304.261 579.549C302.078 576.557 301.807 572.283 302.555 568.767C303.294 565.297 304.658 563.515 307.562 561.56Z"/>
	<path fill="#FEFEFE" transform="scale(1 1)" d="M308.339 564.362C310.059 564.462 311.277 564.49 312.627 565.719C314.217 567.167 314.934 569.726 314.896 571.813C314.835 575.14 314.018 577.471 311.646 579.77C310.146 579.754 308.893 579.794 307.654 578.798C305.992 577.461 305.258 574.742 305.261 572.7C305.267 569.296 306 566.814 308.339 564.362Z"/>
	<path fill="#16464F" transform="scale(1 1)" d="M401.77 462.623C404.602 462.328 407.47 462.062 410.298 462.567C412.423 462.946 415.014 463.976 416.093 466.002C417.256 468.186 416.864 471.319 416.285 473.619C414.69 475.182 410.163 471.272 405.732 472.064C403.955 472.382 401.826 473.404 400.92 475.064C397.309 481.677 418.203 487.72 420.006 499.997C420.586 503.946 419.094 507.716 416.685 510.796C413.013 515.49 408.02 517.027 402.332 517.66C399.343 517.745 396.115 517.666 393.162 517.142C391.039 516.765 389.114 515.997 387.977 514.054C386.191 511.003 388.214 506.248 389.073 503.162C392.995 505.773 397.798 508.273 402.67 507.187C404.153 506.857 405.773 506.024 406.51 504.636C410.428 497.248 391.775 491.897 388.77 482.339C387.577 478.543 388.327 474.346 390.187 470.888C392.666 466.277 397.007 464.152 401.77 462.623Z"/>
	<path fill="#16464F" transform="scale(1 1)" d="M441.636 450.597C443.002 450.475 444.257 450.204 445.517 450.878C447.401 453.937 445.918 461.119 445.854 464.809C449.868 464.842 455.419 463.28 458.916 465.512C459.41 466.367 459.677 466.619 459.726 467.639C459.808 469.358 459.196 471.112 457.859 472.25C454.982 474.697 448.936 473.928 445.312 473.915C445.036 481.528 443.611 500.61 447.964 506.389C449.058 507.842 449.93 508.111 451.655 508.381C453.515 508.671 455.09 508.775 456.35 510.346C456.675 511.422 456.412 512.171 456.065 513.196C455.339 515.335 454.828 515.377 452.937 516.276C451.077 516.554 449.163 516.892 447.28 516.914C443.386 516.958 439.563 515.657 436.825 512.83C428.991 504.739 431.382 484.604 431.518 473.934L422.292 474.094C422.656 472.088 422.893 469.322 424.048 467.585C425.623 465.215 429.048 465.188 431.595 464.82C431.73 461.574 431.428 457.39 433.177 454.53C434.951 451.63 438.592 451.21 441.636 450.597Z"/>
	<path fill="#16464F" transform="scale(1 1)" d="M718.449 462.185C720.463 462.106 722.446 462.233 724.448 462.438C726.77 462.677 728.905 463.052 730.415 465.069C732.359 467.666 731.494 471.129 731.181 474.12C727.806 472.757 724.429 471.707 720.747 471.799C718.401 471.858 715.963 472.353 714.391 474.248C713.752 475.018 713.329 476.068 713.505 477.065C714.338 481.793 723.922 485.803 727.56 488.733C731.103 491.586 734.301 495.496 734.708 500.189C735.036 503.963 733.374 508.072 730.93 510.907C726.311 516.263 718.953 517.362 712.304 517.672C709.134 517.58 705.162 517.186 702.35 515.628C700.881 514.814 699.908 513.724 699.464 512.072C699.045 510.511 699.331 508.048 700.162 506.693C702.211 506.366 709.508 508.631 714.513 508.1C716.942 507.842 719.014 507.102 720.525 505.104C721.126 504.31 721.466 503.335 721.273 502.345C720.319 497.464 710.482 494.005 706.671 491.041C703.021 488.202 699.956 484.327 699.46 479.593C699.078 475.95 700.309 471.708 702.684 468.904C706.593 464.29 712.71 462.813 718.449 462.185Z"/>
	<path fill="#16464F" transform="scale(1 1)" d="M621.398 430.601C623.32 430.384 625.387 430.102 627.313 430.415C631.515 431.098 633.691 436.171 634.46 439.842C635.796 446.223 635.078 453.501 635.061 460.017L635.027 491.521C635.049 496.35 634.602 502.238 635.925 506.903C636.773 509.896 639.69 512.11 641.391 514.633C640.654 515.742 639.213 516.008 638.012 516.43C634.76 516.919 631.109 517.158 628.017 515.825C624.781 514.43 623.188 511.924 622.292 508.607C620.82 503.155 621.363 496.847 621.372 491.216L621.394 458.35C621.4 452.638 621.921 446.049 620.994 440.421C620.565 437.816 618.87 434.626 617.844 432.163C618.722 431.024 620.072 430.917 621.398 430.601Z"/>
	<path fill="#16464F" transform="scale(1 1)" d="M577.337 428.717C578.403 428.527 579.157 428.531 580.225 428.701C581.144 429.611 581.492 430.13 581.55 431.466C581.658 433.942 580.078 436.715 578.453 438.468C574.546 442.685 559.377 441.811 554.012 442.02C553.852 455.01 554.026 468.011 553.96 481.003C553.918 489.255 553.364 497.746 553.948 505.965C554.131 508.54 554.511 511.019 555.519 513.41C555.859 514.216 556.061 514.609 556.174 515.49C556.049 515.647 555.938 515.817 555.799 515.963C554.632 517.185 552.84 517.24 551.25 517.217C548.562 517.18 544.364 516.305 542.491 514.196C538.65 509.873 540.32 474.348 540.354 467.25L540.345 443.043C518.048 450.386 530.524 465.988 527.128 471.962C526.387 472.485 525.946 472.735 525.017 472.824C522.793 473.037 519.635 471.913 517.907 470.523C515.288 468.414 514.297 465.097 513.909 461.882Q513.826 461.243 513.777 460.601Q513.727 459.958 513.711 459.314Q513.695 458.67 513.712 458.026Q513.729 457.381 513.779 456.739Q513.83 456.097 513.913 455.458Q513.997 454.819 514.113 454.185Q514.229 453.551 514.379 452.924Q514.528 452.298 514.709 451.679Q514.89 451.061 515.103 450.453Q515.316 449.845 515.561 449.248Q515.805 448.652 516.079 448.069Q516.354 447.486 516.659 446.919Q516.963 446.351 517.297 445.799Q517.63 445.248 517.992 444.715Q518.353 444.181 518.742 443.667Q519.13 443.153 519.545 442.66C531.181 428.609 560.797 430.12 577.337 428.717Z"/>
	<path fill="#16464F" transform="scale(1 1)" d="M343.008 430.214C344.115 430.052 345.091 430.103 346.202 430.167C347.07 430.982 347.318 431.238 347.458 432.508C347.695 434.65 346.692 437.836 345.191 439.386C340.493 444.234 327.868 442.835 321.458 442.935Q321.504 469.186 321.235 495.436C321.158 502.468 321.499 509.592 321.047 516.603C320.042 517.482 319.3 517.53 317.996 517.521C316.282 517.509 310.731 517.215 309.722 516.02C308.376 514.426 307.979 512.011 307.724 509.999C307.082 504.941 307.49 499.465 307.499 494.355L307.568 464.25L307.549 444.594C303.1 445.821 297.992 447.109 294.467 450.227C286.144 457.59 295.192 461.734 294.613 468.852C293.984 469.593 294.117 469.662 293.072 469.889C290.218 470.511 286.158 469.3 283.838 467.615C280.49 465.184 278.449 460.619 278.018 456.59C277.51 451.833 279.187 447.167 282.34 443.61C293.849 430.627 326.541 431.124 343.008 430.214Z"/>
	<path fill="#16464F" transform="scale(1 1)" d="M599.3 462.677C601.698 462.41 604.421 462.049 606.452 463.668C607.556 464.548 607.982 465.742 608.182 467.086C608.826 471.438 608.403 476.159 608.325 480.546C608.147 490.507 607.626 500.704 608.821 510.616C609.873 511.928 610.825 513.247 611.727 514.666L611.07 515.577C609.413 516.359 607.945 516.79 606.097 516.852C603.514 516.937 600.669 516.242 598.772 514.396C595.357 511.071 596.129 505.189 596.041 500.842C594.052 505.528 591.817 509.367 588.158 512.971C585.392 515.062 582.204 516.586 578.774 517.204C575.349 517.822 571.846 517.206 569.012 515.132C565.319 512.428 563.403 507.913 562.749 503.5C561.426 494.58 564.43 485.363 569.839 478.282C577.287 468.532 587.431 464.248 599.3 462.677Z"/>
	<path fill="#FEFEFE" transform="scale(1 1)" d="M597.696 472.532C598.582 472.675 598.139 472.49 598.941 473.257C599.793 479.185 593.746 489.767 590.82 494.747C587.624 500.186 584.059 504.743 577.691 506.363C576.749 505.201 576.064 504.225 575.713 502.758C574.33 496.976 576.427 490.939 579.415 486.006C583.72 478.899 589.636 474.528 597.696 472.532Z"/>
	<path fill="#16464F" transform="scale(1 1)" d="M362.604 462.663C364.669 462.417 367.252 462.344 369.279 462.776C372.529 463.468 374.808 465.877 375.778 469.002C378.574 478.015 374.626 496.486 377.826 508.542C378.479 511.004 379.946 513.214 381.248 515.379C379.449 516.069 377.709 516.646 375.789 516.898C373.097 517.251 370.252 517.01 368.093 515.201C363.975 511.751 364.043 504.728 363.634 499.854C361.901 503.388 359.931 506.534 357.537 509.656C354.387 512.991 350.799 516.286 346.169 517.297C343.123 517.962 340.115 517.436 337.529 515.677C333.837 513.165 331.864 508.836 331.172 504.54C329.594 494.73 332.944 483.9 338.862 476.061C344.892 468.073 352.81 464.011 362.604 462.663Z"/>
	<path fill="#FEFEFE" transform="scale(1 1)" d="M361.327 473.572C362.358 473.535 363.266 473.596 364.291 473.677C365.141 474.77 365.246 475.426 365.172 476.819C364.717 485.334 353.896 501.548 347.444 507.064L345.803 507.049C344.756 506.255 344.157 505.4 343.786 504.138C342.171 498.641 344.554 490.912 347.154 485.978C350.338 479.938 354.736 475.62 361.327 473.572Z"/>
	<path fill="#16464F" transform="scale(1 1)" d="M505.987 462.679C506.883 462.78 507.047 463.058 507.747 463.59C509.925 469.102 508.495 506.449 507.595 514.722C507.255 517.852 506.552 520.991 505.697 524.019C503.794 530.756 500.245 536.863 493.858 540.248C486.469 544.164 473.893 544.196 466.091 541.542C464.128 540.875 462.176 539.66 461.427 537.626C460.633 535.47 461.214 533.082 462.206 531.106C465.904 529.298 472.427 532.875 476.7 533.146C480.953 533.417 485.085 532.805 488.276 529.757C495.156 523.185 495.465 511.175 495.574 502.353C494.322 504.605 492.919 506.768 491.546 508.947C488.31 512.844 484.016 516.546 478.819 517.294C475.898 517.715 472.686 516.989 470.333 515.176C466.463 512.192 465.239 507 464.712 502.38C463.916 495.4 464.124 477.302 465.408 470.568C465.677 469.159 466.37 467.838 467.295 466.75C469.359 464.322 472.989 462.72 476.165 462.693C477.404 462.683 478.207 463.014 479.113 463.86C479.73 465.198 477.824 485.861 477.818 490.502C477.815 493.985 477.541 502.757 480.181 505.405L481.308 505.245C492.605 496.152 496.266 477.226 499.108 463.809C501.379 463.183 503.655 462.951 505.987 462.679Z"/>
	<path fill="#16464F" transform="scale(1 1)" d="M653.612 430.183C653.803 430.165 653.994 430.137 654.187 430.131C655.896 430.076 657.398 430.538 658.61 431.769C660.681 433.872 661.677 437.125 662.141 439.969C663.111 445.909 662.575 452.484 662.563 458.502L662.463 491.964C667.374 483.601 674.414 470.346 682.503 465.079C684.249 463.942 686.577 463.061 688.68 463.665C691.508 464.476 692.528 466.592 693.88 468.97C687.142 475.148 683.1 483.718 676.658 490.244C685.663 502.97 692.964 516.978 704.795 527.428C708.158 530.061 712.19 532.175 715.827 534.432C715.677 535.419 715.534 535.911 714.68 536.54C711.84 538.634 704.003 537.888 700.731 537.025C696.506 535.909 692.771 533.622 689.562 530.697C683.249 524.943 672.166 506.903 667.697 499.032C666.249 500.433 664.599 502.051 663.624 503.819C661.699 507.309 660.707 513.776 656.98 515.836C655.449 516.681 653.266 516.926 651.63 516.252C650.155 515.644 649.603 514.475 649.282 513.015C648.198 508.086 648.877 501.958 648.914 496.915L649.108 460.939C649.118 454.256 649.508 447.258 648.668 440.63C648.254 437.361 647.374 434.509 646.128 431.47C648.594 430.851 651.097 430.533 653.612 430.183Z"/>
	<defs>
		<linearGradient id="gradient_2" gradientUnits="userSpaceOnUse" x1="622.00916" y1="686.07806" x2="629.0025" y2="739.37305">
			<stop offset="0" stop-color="#7CA19B"/>
			<stop offset="1" stop-color="#4FA8B0"/>
		</linearGradient>
	</defs>
	<path fill="url(#gradient_2)" transform="scale(1 1)" d="M583.451 691.974L584.646 691.421C589.112 692.937 594.37 693.799 599.065 694.185C603.433 694.545 607.173 693.917 611.466 693.605C618.305 693.108 625.215 692.879 632.066 692.509C639.661 692.099 647.303 692.533 654.879 692.055C659.343 691.773 663.77 690.818 668.211 690.3C670.967 689.979 674.058 690.095 676.744 689.532C678.492 689.166 680.09 687.53 681.428 686.388L682.584 686.489C677.306 692.229 670.938 697.104 664.904 702.031C637.759 724.199 610.291 737.779 576.845 747.794C574.857 734.866 571.967 722.099 569.796 709.203C576.495 704.954 581.55 700.032 583.451 691.974Z"/>
	<path fill="#60A7AB" transform="scale(1 1)" d="M500.731 703.057C500.938 702.943 501.15 702.839 501.351 702.717C504.151 701.019 506.026 694.834 506.683 691.694C506.824 691.017 506.84 690.441 506.849 689.753C507.788 689.518 507.644 689.391 508.573 689.838C514.273 692.582 526.561 693.693 532.989 693.887C535.828 693.973 538.698 691.635 541.276 692.048C541.303 692.27 541.308 692.497 541.357 692.715C541.594 693.777 542.015 694.027 542.648 694.818C546.971 700.22 547.436 706.029 555.112 708.5L555.775 708.33C557.947 709.023 560.025 709.425 562.282 709.736C564.767 723.024 567.071 736.583 570.342 749.693Q562.676 751.28 554.94 752.48Q547.204 753.681 539.418 754.492Q531.632 755.302 523.815 755.721Q515.997 756.14 508.169 756.166C504.949 740.359 500.04 724.871 497.208 709.021C498.066 706.881 499.1 704.708 500.731 703.057Z"/>
	<defs>
		<linearGradient id="gradient_3" gradientUnits="userSpaceOnUse" x1="423.11078" y1="683.50385" x2="423.86578" y2="755.26941">
			<stop offset="0" stop-color="#7AA69F"/>
			<stop offset="1" stop-color="#48A4AB"/>
		</linearGradient>
	</defs>
	<path fill="url(#gradient_3)" transform="scale(1 1)" d="M347.614 689.152C354.427 690.189 361.637 692.609 368.092 693.14C376.421 693.824 385.264 692.885 393.652 692.67C415.839 692.102 438.8 692.098 460.707 688.2C464.807 687.471 467.919 683.662 471.83 682.98C472.1 682.933 472.373 682.905 472.645 682.868C473.252 681.874 472.181 677.983 472.054 676.499L472.839 676.104C473.725 684.047 474.131 697.085 481.015 702.299C489.458 708.695 492.821 708.624 494.868 720.695C496.847 732.361 497.067 744.32 498.659 756.051Q494.44 755.783 490.234 755.367Q486.027 754.95 481.838 754.384Q477.648 753.819 473.482 753.106Q469.315 752.393 465.176 751.532Q461.037 750.672 456.932 749.666Q452.826 748.66 448.758 747.509Q444.691 746.358 440.666 745.064Q436.642 743.77 432.666 742.335Q428.69 740.899 424.767 739.323Q420.845 737.748 416.98 736.035Q413.116 734.322 409.314 732.473Q405.513 730.624 401.779 728.641Q398.045 726.659 394.384 724.546Q390.723 722.433 387.139 720.191Q383.555 717.95 380.052 715.583Q376.55 713.216 373.133 710.727C364.501 704.542 354.618 697.128 347.614 689.152Z"/>
	<defs>
		<linearGradient id="gradient_4" gradientUnits="userSpaceOnUse" x1="521.39832" y1="593.89496" x2="520.65912" y2="694.11127">
			<stop offset="0" stop-color="#D6A08B"/>
			<stop offset="1" stop-color="#75A39F"/>
		</linearGradient>
	</defs>
	<path fill="url(#gradient_4)" transform="scale(1 1)" d="M301.719 631.07L562.377 630.624L633.903 630.611C647.087 630.627 660.618 631.311 673.753 630.327C703.659 628.088 722.517 613.67 741.389 591.669C733.142 624.959 707.654 663.399 682.584 686.489L681.428 686.388C680.09 687.53 678.492 689.166 676.744 689.532C674.058 690.095 670.967 689.979 668.211 690.3C663.77 690.818 659.343 691.773 654.879 692.055C647.303 692.533 639.661 692.099 632.066 692.509C625.215 692.879 618.305 693.108 611.466 693.605C607.173 693.917 603.433 694.545 599.065 694.185C594.37 693.799 589.112 692.937 584.646 691.421L583.451 691.974C584.997 681.993 582.473 672.905 576.561 664.74C572.829 659.586 562.563 649.357 556.238 648.647C553.891 648.384 551.553 649.764 549.872 651.274C543.034 657.415 540.411 668.704 540.14 677.513C539.861 686.572 542.043 695.23 548.383 701.949C550.157 703.828 551.952 705.416 554.03 706.953C554.57 707.353 555.354 707.828 555.775 708.33L555.112 708.5C547.436 706.029 546.971 700.22 542.648 694.818C542.015 694.027 541.594 693.777 541.357 692.715C541.308 692.497 541.303 692.27 541.276 692.048C538.698 691.635 535.828 693.973 532.989 693.887C526.561 693.693 514.273 692.582 508.573 689.838C507.644 689.391 507.788 689.518 506.849 689.753C506.84 690.441 506.824 691.017 506.683 691.694C506.026 694.834 504.151 701.019 501.351 702.717C501.15 702.839 500.938 702.943 500.731 703.057C503.626 698.076 506.088 693.409 505.393 687.437C504.828 682.574 498.378 660.998 494.582 658.37C494.137 658.063 494.21 658.154 493.689 658.254L493.32 658.832C494.038 660.502 494.706 662.168 495.308 663.883L495.346 666.61Q494.182 667.503 493.059 668.448C492.325 665.901 491.283 660.894 489.227 659.233C488.424 660.18 488.737 660.739 488.809 661.926L487.958 661.702L487.665 660.384L486.949 660.528C486.757 661.47 486.696 662.38 486.64 663.339C486.338 662.212 486.117 661.19 485.389 660.245C484.877 659.58 485.053 659.77 484.186 659.722L483.513 660.907C482.795 661.133 481.787 661.179 481.422 661.893C480.876 662.962 480.908 664.301 480.821 665.481C480.524 663.62 480.18 661.832 478.794 660.537C478.293 661.055 478.315 661.259 478.129 661.932C477.036 662.276 475.925 662.593 474.844 662.97L474.334 662.318L473.485 662.448C472.187 666.798 472.556 671.626 472.839 676.104L472.054 676.499C472.181 677.983 473.252 681.874 472.645 682.868C472.373 682.905 472.1 682.933 471.83 682.98C467.919 683.662 464.807 687.471 460.707 688.2C438.8 692.098 415.839 692.102 393.652 692.67C385.264 692.885 376.421 693.824 368.092 693.14C361.637 692.609 354.427 690.189 347.614 689.152C344.96 687.482 342.204 684.245 339.937 681.959Q334.321 676.285 329.105 670.243Q323.888 664.2 319.094 657.817Q314.3 651.433 309.951 644.739Q305.602 638.045 301.719 631.07Z"/>
	<defs>
		<linearGradient id="gradient_5" gradientUnits="userSpaceOnUse" x1="518.95856" y1="268.99121" x2="518.45508" y2="414.7572">
			<stop offset="0" stop-color="#D46150"/>
			<stop offset="1" stop-color="#E29C79"/>
		</linearGradient>
	</defs>
	<path fill="url(#gradient_5)" transform="scale(1 1)" d="M497.699 268.704C503.062 268.086 508.852 268.252 514.255 268.298Q520.514 268.395 526.76 268.802Q533.007 269.208 539.226 269.923Q545.444 270.639 551.62 271.66Q557.796 272.682 563.914 274.008Q570.031 275.334 576.076 276.961Q582.12 278.588 588.077 280.512Q594.034 282.436 599.888 284.653Q605.742 286.869 611.48 289.372Q614.134 290.54 616.759 291.772Q619.384 293.004 621.978 294.3Q624.571 295.596 627.133 296.955Q629.694 298.314 632.221 299.736Q634.749 301.157 637.241 302.64Q639.732 304.122 642.187 305.666Q644.642 307.209 647.058 308.812Q649.475 310.415 651.851 312.076Q654.227 313.738 656.562 315.457Q658.897 317.176 661.189 318.952Q663.482 320.728 665.73 322.559Q667.978 324.39 670.181 326.276Q672.383 328.162 674.539 330.101Q676.695 332.04 678.803 334.031Q680.91 336.022 682.969 338.065Q685.027 340.107 687.035 342.199Q689.043 344.291 690.999 346.431Q692.955 348.572 694.858 350.759Q696.761 352.947 698.61 355.181Q700.459 357.414 702.253 359.692Q704.047 361.971 705.784 364.292Q707.522 366.613 709.202 368.977Q710.882 371.34 712.504 373.743Q714.126 376.147 715.688 378.589Q717.251 381.032 718.753 383.512Q720.256 385.992 721.697 388.508Q723.138 391.024 724.518 393.575Q725.897 396.125 727.213 398.709Q728.53 401.292 729.783 403.907Q731.035 406.522 732.224 409.167Q733.412 411.812 734.536 414.485Q735.659 417.158 736.717 419.858C729.693 413.47 722.707 406.375 714.26 401.897C703.897 396.402 691.737 392.822 680.164 391.09C665.154 388.845 649.489 389.568 634.35 389.568L572.712 389.518L301.996 389.468C308.403 376.539 318.947 362.992 328.318 351.994Q329.856 350.215 331.429 348.466Q333.002 346.717 334.608 344.998Q336.214 343.28 337.854 341.593Q339.493 339.906 341.165 338.252Q342.837 336.597 344.54 334.975Q346.244 333.353 347.978 331.765Q349.713 330.176 351.478 328.622Q353.243 327.067 355.038 325.547Q356.833 324.027 358.657 322.542Q360.482 321.057 362.334 319.607Q364.187 318.158 366.067 316.745Q367.947 315.332 369.855 313.956Q371.762 312.579 373.696 311.24Q375.63 309.901 377.589 308.6Q379.549 307.298 381.533 306.035Q383.517 304.772 385.525 303.548Q387.534 302.323 389.566 301.138Q391.597 299.953 393.652 298.807Q395.706 297.662 397.782 296.556Q399.858 295.451 401.956 294.386Q404.053 293.321 406.17 292.297Q408.288 291.273 410.425 290.29Q412.562 289.307 414.717 288.366Q416.873 287.425 419.047 286.525Q421.22 285.626 423.411 284.769Q425.601 283.912 427.808 283.098Q430.015 282.284 432.237 281.513Q434.459 280.741 436.695 280.013Q438.932 279.285 441.182 278.601Q443.433 277.916 445.696 277.276Q447.959 276.635 450.234 276.038Q452.51 275.441 454.796 274.889C468.956 271.54 483.219 269.861 497.699 268.704Z"/>
</svg>
