<svg width="769" height="404" fill="none" xmlns="http://www.w3.org/2000/svg"><path d="M498.489 154.267c5.661-.22 11.352-.128 17.019-.148-.062 27.365.068 54.728.389 82.089 9.723-.334 19.492-.161 29.221-.173.371 5.793-.004 11.704-.135 17.506l-46.867.188c.006-12.173-.831-96.053.373-99.462Zm-414.872-.013 44.117-.184c.152 5.586.164 11.172.035 16.759-5.42-.065-10.84-.055-16.259.028l.08 72.018.015 10.65-18.152.11c.197-27.693.222-55.385.076-83.078-5.273-.051-10.561.143-15.834.249-.209-5.459-.109-10.973-.144-16.438l6.066-.114Zm292.368-.16c17.671.584 35.466.117 53.165.431.199 5.529-.11 11.168-.19 16.708l-17.493-.077c-.18 21.657-.232 43.313-.155 64.969l.132 17.398-17.769-.026c.133-27.357.091-54.714-.125-82.071-5.8-.127-11.616-.079-17.418-.111l-.147-17.221Zm-127.051-.056 53.082.023.006 17.362c-5.748-.359-11.527-.331-17.285-.405-.232 21.557.145 43.168.142 64.732.009 5.949-.016 11.897-.076 17.845h-18.037l-.253-82.453-17.828-.327c-.064-5.59-.264-11.203.249-16.777Zm53.495-.06c6.562.213 13.174.024 19.741-.01 6.074 12.639 11.024 25.801 17.031 38.483a2161.027 2161.027 0 0 0 16.475-38.277c6.477-.18 12.988-.071 19.469-.093-6.885 13.626-13.026 27.635-19.317 41.542-1.989 4.798-5.009 9.153-6.632 14.113-3.008 9.188-1.22 32.82-1.457 43.733l-17.257-.033c-.059-12.521 1.461-25.688-.245-38.094-1.541-11.202-8.66-22.456-13.619-32.528l-14.189-28.836Zm-85.858-.358c9.502-1.164 18.36 1.532 27.322 4.323a134.381 134.381 0 0 1-5.182 17.174c-5.033-2.372-10.128-4.761-15.791-5.004-3.012-.129-6.18.443-8.414 2.619-2.026 1.973-3.279 5.101-3.172 7.928.349 9.22 13.61 12.793 20.321 16.418a45.82 45.82 0 0 1 8.909 6.338c6.152 5.683 9.636 13.068 9.857 21.466.214 8.124-2.224 16.434-8.037 22.308-6.54 6.611-14.563 7.519-23.393 7.418-9.604-.279-17.593-3.64-25.318-9.154 1.597-5.64 3.179-11.24 5.242-16.732 1.173.877 2.36 1.735 3.56 2.574 5.678 3.92 14.025 7.497 21.01 6.004 3.102-.664 6.246-1.91 7.959-4.741 1.638-2.706 1.863-6.702.957-9.686-2.893-9.538-15.464-13.057-23.207-17.347-6.734-3.731-12.304-9.72-14.268-17.31-1.884-7.277-.714-16.366 3.212-22.801 4.228-6.931 10.862-9.978 18.433-11.795Zm426.178-.947c10.204-.571 17.52 1.492 26.008 7.172a624.607 624.607 0 0 1-4.792 15.11c-5.707-2.458-11.907-5.337-18.245-5.343-3.445-.003-6.714.893-9.122 3.471-2.113 2.262-3.209 5.41-3.081 8.491.539 12.948 23.061 13.475 32.24 22.484 5.219 5.121 7.119 11.721 7.059 18.863-.071 8.397-3.237 18.138-9.5 23.961-7.863 7.311-17.977 8.09-28.162 7.546-8.519-1.284-15.709-4.359-21.164-11.268l4.726-15.791c7.349 4.789 16.112 11.381 25.431 9.789 3.928-.672 7.222-2.626 9.413-5.982 1.849-2.834 3.195-6.043 2.356-9.463-2.588-10.555-19.484-12.86-27.503-17.927-5.706-3.606-9.957-8.833-11.297-15.561-1.509-7.583.337-16.443 4.759-22.784 5.055-7.247 12.29-11.232 20.874-12.768Zm-90.92 1.555c5.843-.185 11.714-.127 17.561-.17l.121 35.765c8.133-11.608 15.636-23.79 23.385-35.668a356.609 356.609 0 0 1 18.901.133c-9.497 15.692-19.84 30.891-29.111 46.717 6.842 12.054 13.297 24.329 20.354 36.26 3.253 5.38 6.361 10.753 8.938 16.495-6.546-.315-13.143-.246-19.698-.311-8.052-12.903-14.62-26.721-22.283-39.859l-.314 39.877-17.899.006c-.01-33.007-.987-66.27.045-99.245Zm-398.359-.09c2.576-.169 5.179-.182 7.761-.26 4.351 13.789 9.372 27.328 13.938 41.044 6.48 19.467 12.547 39.058 18.799 58.599l-18.312-.001-3.011-11.755c-4.147-.427-8.4-.284-12.569-.313l-18.781.006-3.317 11.869c-6.235-.019-12.469.001-18.703.06 5.471-19.962 12.963-39.687 19.602-59.296 2.48-7.323 11.077-35.092 14.593-39.953Zm2.823 38.73c-3.898 10.919-7.362 22.038-10.766 33.121l13.098-.107 9.101-.127c-1.789-6.505-7.717-28.78-11.433-32.887Zm295.453-40.227 6.499-.104 34.946 100.96-18.722-.068c-1.453-4.289-2.902-8.556-4.067-12.936l-13.962-.468-17.267-.025c-1.808 4.49-3.247 9.197-4.838 13.771-6.094-.357-12.232-.258-18.336-.294 5.169-17.254 11.659-34.438 17.767-51.389 5.941-16.49 11.632-33.112 17.98-49.447Zm2.53 36.684c-3.412 11.5-6.739 22.999-10.894 34.26l12.993.165 9.155.153c-1.361-4.403-9.417-32.858-11.254-34.578Z" fill="#104147"/><path d="M578.238 60.658c-4.346 2.474-7.806 7.344-11.632 10.662-13.544 11.745-30.712 18.822-48.727 18.893-18.202.072-36.869-7.41-49.761-20.314-9.399-9.408-16.163-22.591-16.115-36.098.025-7.2 2.58-12.744 7.691-17.75C470.791 5.184 486.994.534 502.243.661c22.903.189 47.327 11.703 62.658 28.68 3.815 4.224 6.02 10.43 9.938 14.18.198.19.404.371.606.557-.907 1.865-.612 2.799-.263 4.816 1.556 2.577 4.043 6.81 3.235 9.956-.163.634-.187.668-.372 1.153l.193.655ZM469.985 16.575c24.858-6.161 47.192-2.752 69.25 10.425 12.055 7.202 21.983 16.432 30.285 27.715-19.561 10.322-51.563 13.051-72.801 6.589-19.23-5.851-27.558-13.598-41.373-27.155 4.14 13.346 14.652 23.036 26.752 29.444a93.597 93.597 0 0 0 3.955 1.934 89.216 89.216 0 0 0 4.043 1.741 91.061 91.061 0 0 0 6.212 2.239 91.65 91.65 0 0 0 8.504 2.272 88.078 88.078 0 0 0 4.324.825 88.528 88.528 0 0 0 4.36.614 92.72 92.72 0 0 0 4.384.402 89.603 89.603 0 0 0 4.398.189 89.802 89.802 0 0 0 6.602-.115 93.264 93.264 0 0 0 6.576-.595 88.543 88.543 0 0 0 4.352-.662 91.06 91.06 0 0 0 10.697-2.568c9.192-2.865 18.123-8.024 27.54-9.866.185-.485.209-.519.372-1.153.808-3.146-1.679-7.379-3.235-9.956-17.356-20.239-40.345-39.518-68.027-41.558-13.956-1.028-25.021 2.754-37.17 9.239Z" fill="#C6B356"/><path d="M320.164 53.506c2.034-10.422 6.014-20.387 15.17-26.527 4.2-2.816 8.329-4.036 13.348-4.288 10.586-.53 21.727 2.718 32.112 4.583 12.904 2.318 25.851 4.345 38.693 6.999 5.792 1.196 12.266 2.162 17.753 4.384-13.397 1.08-27.293-.946-40.661-1.996-14.351-1.126-28.775-1.877-43.099-3.241.049 3.338-.005 6.72.347 10.04 15.95.492 31.893 1.161 47.828 2.008 10.741.619 22.405.779 32.828 3.612-8.376 2.555-18.859 1.826-27.583 1.997-17.735.347-35.649-.036-53.347.871l-.02 8.596c21.675-.77 61.356-3.752 81.292.856-9.762 2.035-19.575 2.541-29.479 3.389-10.487.897-20.945 2.144-31.439 2.964-6.755.528-13.595.587-20.325 1.254l-.048 10.194a3496.405 3496.405 0 0 1 48.205-4.746c11.576-1.046 23.793-2.635 35.388-1.612-12 5.107-26.053 6.208-38.809 8.708-14.425 2.827-29.368 6.815-44.048 7.85-4.38.308-9.472.338-13.61-1.245-7.808-2.988-13.866-9.575-17.122-17.166-1.051-2.448-1.806-5.014-2.462-7.592-30.246.169-60.403 1.895-90.618 3.081-49.227 1.931-93.142 1.169-138.057 24.915a158.128 158.128 0 0 0-21.031 13.035 158.3 158.3 0 0 0-18.745 16.152c-22.022 22.4-36.639 51.772-36.309 83.596.33 31.756 16.451 60.024 38.803 81.73 21.058 20.448 48.361 34.649 76.613 42.203 6.52 1.744 13.156 2.85 19.766 4.176-1.323 18.786 2.781 30.865 12.615 46.799 10.22-9.1 21.561-16.937 33.195-24.115 36.417-22.471 78.473-37.882 121.815-35.351 16.43.96 32.452 5.067 48.42 8.77a1261.091 1261.091 0 0 0 47.851 10.264c93.746 17.288 214.232 21.212 290.624-46.384 24.468-21.652 44.069-50.268 46.084-83.761 1.784-29.646-10.621-57.677-30.102-79.547-28.264-31.732-72.279-54.538-113.477-63.869-10.148-2.299-20.007-3.153-30.285-4.434l-.193-.655c.185-.485.209-.519.372-1.153.808-3.146-1.679-7.379-3.235-9.956-.349-2.017-.644-2.951.263-4.816 12.215-.025 23.734 2.1 35.576 4.848 41.875 9.718 85.261 30.488 115.944 61.085 24.442 24.374 41.686 57.624 41.574 92.673-.114 35.991-17.449 68.777-42.632 93.649-52.785 52.136-133.618 70.582-205.628 69.986-41.658-.344-82.542-5.815-123.266-14.375-25.209-5.298-50.328-13.461-76.063-15.656-58.724-5.008-117.812 29.153-160.271 66.804-13.024-15.537-24.287-36.139-25.343-56.792-47.967-13.068-92.888-37.813-118.216-82.355-16.285-28.64-21.459-62.131-12.51-94.038 11.08-39.509 42.198-71.697 77.516-91.365 55.658-30.996 102.337-27.324 163.599-26.059 24.799.512 49.652.105 74.439 1.023Z" fill="url(#a)"/><defs><linearGradient id="a" x1="377.191" y1="22.253" x2="391.515" y2="392.071" gradientUnits="userSpaceOnUse"><stop stop-color="#1C5048"/><stop offset="1" stop-color="#296D53"/></linearGradient></defs></svg>