<svg width="926" height="559" fill="none" xmlns="http://www.w3.org/2000/svg"><path d="M1.017.734h924.099v557.532H1.016V.734Z" fill="#FEFEFE"/><path d="M599.449 213.352c7.078-.361 14.228-.224 21.318-.282-.091 37.863.062 75.724.458 113.583l34.974-.161c-.018 8.131.03 16.266-.282 24.392-18.769.563-37.586.382-56.362.399l-.106-137.931Zm-505.386.04a4757.29 4757.29 0 0 0 60.679-.42l.044 23.669-19.692-.052.282 93.073-.008 21.453c-7.517.194-15.058.09-22.579.122 1.111-38.249.301-76.662.462-114.938-6.39.208-12.794.219-19.184.315a553.831 553.831 0 0 1-.004-23.222Zm358.892-.182 64.123.184c-.056 7.923-.275 15.856-.419 23.779-6.996.206-13.999-.104-20.994-.31a9883.65 9883.65 0 0 1-.17 88.475c-.019 8.586.042 17.171.184 25.755-7.258.092-14.516.056-21.773-.109.469-37.877.031-75.836.047-113.72l-20.925-.025c.07-8.015.17-16.017-.073-24.029Zm-152.808-.1 63.703-.073c-.082 8.031.044 16.082.074 24.115-6.804.231-13.705-.137-20.515-.26l.01 90.695.096 23.734-22.08-.097-.288-113.952a544.27 544.27 0 0 1-21.526-.732c-.058-7.699-.412-15.8.526-23.43Zm64.489-.015 23.664-.158c6.686 17.708 13.794 35.205 20.254 53.025a2281.505 2281.505 0 0 0 19.935-52.79c7.655-.184 15.427-.289 23.073.168-3.049 6.444-5.463 13.51-8.093 20.202l-15.265 39.141c-2.404 6.359-6.007 12.291-7.82 18.92-2.171 7.937-1.068 48.488-1.124 59.296-7.18.227-14.361.257-21.543.09.052-14.087 1.335-43.054-.401-55.438-1.625-11.597-8.64-24.5-13-35.05a2904.032 2904.032 0 0 0-19.68-47.406Zm-101.06-1.185c10.741-.804 20.374 2.581 30.362 6.609-1.296 8.38-3.613 16.256-5.976 24.295-4.541-3.18-9.257-5.625-14.549-6.48-5.266-.852-9.92-1.362-14.32 2.721-2.683 2.488-3.961 5.441-4.239 9.379-.965 13.737 16.263 18.449 24.47 23.71 5.379 3.448 10.353 7.898 14.325 13.333 6.774 9.268 9.235 20.34 8.227 32.286-.92 10.911-4.563 20.313-12.173 27.187-8.765 7.918-19.136 8.541-29.721 7.224-9.668-.67-18.853-5.962-26.393-12.611 1.636-7.97 4.108-16.018 6.373-23.788 1.031 1.184 2.08 2.416 3.231 3.449 6.968 6.251 17.186 10.397 26.026 9.265 3.233-.414 6.515-1.708 8.542-4.801 2.324-3.542 3.564-8.96 2.879-13.345-2.459-15.756-22.663-20.664-32.618-28.618-7.356-5.875-12.163-14.343-13.618-24.582-1.442-10.155.547-22.443 5.995-30.715 5.604-8.509 14.201-13.045 23.177-14.518Zm508.712-.802c12.156-1.322 22.794 1.18 32.41 10.13-1.673 7.132-3.154 14.411-5.587 21.259-6.512-3.542-13.465-6.995-20.757-7.432-4.204-.252-8.512.256-11.643 3.817-2.641 3.005-3.784 7.346-3.825 11.543-.207 21.694 26.138 15.843 39.399 32.681 6.316 8.018 7.997 19.294 7.435 29.777-.619 11.572-4.992 22.63-12.711 30.208-8.581 8.423-19.149 10.292-30.019 9.486a45.973 45.973 0 0 1-5.489-.799c-8.74-1.869-17.606-6.738-22.752-15.346 1.833-7.383 3.657-14.728 5.917-21.957 9.143 6.86 19.861 16.333 31.543 13.506 4.216-1.02 8.151-3.916 10.456-8.153 2.134-3.923 2.968-9.809 2.054-14.304-2.611-12.843-22.601-16.076-31.658-22.408-6.954-4.863-12.392-11.603-14.215-20.967-2.104-10.801-.689-22.775 4.649-32.064 5.772-10.045 14.644-16.518 24.793-18.977Zm-108.137 2.064 21.399-.253c-.054 16.347-.018 32.693.108 49.039 4.174-6.151 7.515-13.271 11.178-19.842a1067.59 1067.59 0 0 1 16.864-29.005c7.768-.178 15.558-.081 23.329-.116l-35.717 65.221c8.702 16.648 16.681 33.702 24.83 50.718 3.79 7.199 8.148 14.554 10.502 22.548l-24.178-.583c-9.242-17.941-17.045-36.864-26.218-54.857a4238.095 4238.095 0 0 0-.492 54.777l-21.816.133c.293-30.344.077-60.715.026-91.062-.027-15.516-.491-31.226.185-46.718Zm-474.511-.519 5.319.183c3.798 16.146 9.588 32.078 14.224 47.976a3065.411 3065.411 0 0 1 24.823 90.046l-22.088.009c-1.058-5.549-2.194-10.936-3.763-16.324-5.969-.681-12.098-.386-18.095-.392l-19.164.075-4.037 16.536-22.913.162c5.381-20.687 11.725-40.989 17.727-61.441 7.401-25.22 14.615-50.582 22.546-75.586 1.442-1.169 3.653-1.04 5.421-1.244Z" fill="#104046"/><path d="M188.566 267.374c3.321 3.224 12.028 37.801 13.612 44.655l-11.465.247c-4.811.236-9.638.219-14.453.287 3.509-15.155 8.196-30.218 12.306-45.189Z" fill="#FEFEFE"/><path d="m543.608 210.835 8.375-.029c7.713 26.288 16.342 52.274 24.199 78.516 6.132 20.482 11.475 41.302 17.819 61.689l-22.811-.279c-1.806-5.86-3.979-11.836-4.919-17.97l-15.162-.426-22.313-.083a692.848 692.848 0 0 1-5.823 18.966c-7.486-.493-15.02-.302-22.516-.296 4.744-13.837 8.517-28.227 12.796-42.271l21.51-68.446c3.049-9.754 5.676-19.664 8.845-29.371Z" fill="#104046"/><path d="M547.224 261.858c1.993 4.327 3.082 10.32 4.318 15.04 2.846 10.872 5.473 21.841 8.818 32.528l-11.33-.092-14.89-.022c5.271-15.13 8.927-31.841 13.084-47.454Z" fill="#FEFEFE"/><path d="M696.241 83.993c-5.697 4.551-10.342 10.753-15.529 16.018-12.726 12.917-29.047 20.963-45.742 23.94-21.981 3.92-45.005-3.257-62.778-18.504-14.78-12.678-25.192-29.884-27.786-51.2-1.129-9.27-.593-18.344 4.599-26.02 10.517-15.548 27.62-24.57 44.321-26.878 32.461-4.488 65.868 13.583 87.735 40.787 3.048 3.791 9.358 17.058 11.524 18.692.184.139.397.217.596.325l-1.449.89c-.315 1.925.2 3.42.69 5.232 1.609 3.552 4.711 9.972 3.79 13.985-.147.635-.49 1.061-.817 1.59.258.402.452.93.846 1.143Z" fill="#C6B255"/><path d="M565.91 23.166c11.467-9.164 27.131-13.743 41.008-13.37 21.823.587 44.88 13.948 61.267 29.909 8.636 8.412 16.409 18.196 24.237 27.57 1.609 3.552 4.711 9.972 3.79 13.985-.147.635-.49 1.061-.817 1.59-4.944.198-23.697 10.349-30.726 12.92-27.503 10.066-58.373 7.994-83.992-7.56-15.102-9.168-28.045-22.624-33.144-41.78 13.651 16.7 20.698 24.897 39.725 34.153 33.041 16.076 66.108 10.268 98.468-4.709-10.109-18.222-27.097-32.99-43.502-43.093-24.296-14.96-49.903-18.79-76.314-9.615Z" fill="#FEFEFE"/><path d="M385.454 73.888c2.812-14.433 7.231-28.574 18.557-36.954 5.268-3.896 11.501-6.24 17.784-6.224 11.365.028 24.272 4.306 35.501 6.671 21.496 4.528 43.309 8.47 64.595 14.126.852.227 1.492.441 2.262.895-.786 1.189-.852 1.352-2.225 1.524-7.867.98-20.93-1.293-29.073-1.97a4641.634 4641.634 0 0 0-66.995-5.234c.19 4.446.487 8.93.475 13.381 13.105.412 91.162 3.635 96.103 7.403-.849 1.248-1.446 1.425-2.779 1.615-10.328 1.459-21.5 1.295-31.921 1.608a4658.37 4658.37 0 0 1-61.783 1.207l.059 11.615c14.192-.238 89.057-3.567 96.258 1.287l-.133.468c-10.788 3.075-23.065 2.992-34.152 4.194-20.497 2.223-41.067 5.227-61.649 6.097-.033 4.6.102 9.316-.333 13.888 12.934-.98 93.983-11.825 99.155-8.549-1.891 1.579-3.923 2.394-6.159 3.097-12.308 3.869-25.318 5.821-37.847 8.644-17.637 3.973-35.875 8.915-53.713 11.277-3.824.506-7.792.629-11.604-.068-9.269-1.697-17.155-8.697-22.384-17.396-3.342-5.56-5.731-11.907-6.516-18.631-35.604-.096-71.43 2.633-107.008 4.36-32.434 1.575-66.066 1.308-98.138 7.197-42.424 7.791-85.81 31.483-116.472 66.371-26.57 30.233-44.773 71.842-44.83 115.308-.059 42.689 18.854 82.029 44.47 111.725 30.75 35.648 75.455 59.045 118.275 66.805-2.823 23.684 3.932 44.583 14.976 64.388 53.414-50.522 123.206-89.108 193.826-81.225 17.793 1.986 35.067 7.314 52.423 11.98a994.404 994.404 0 0 0 57.201 13.961c112.769 24.05 249.966 27.886 343.954-60.394 30.492-28.642 54.722-68.55 58.774-114.572 3.646-41.405-9.829-79.243-32.327-110.881-37.65-52.948-110.765-91.654-169.219-98.27-2.198-.24-4.399-.446-6.601-.62-.394-.212-.588-.74-.846-1.142.327-.529.67-.955.817-1.59.921-4.013-2.181-10.433-3.79-13.985-.49-1.813-1.005-3.307-.69-5.232l1.45-.89c10.975-.942 22.137 1.467 32.887 3.872 48.212 10.781 100.426 38.241 137.839 75.295 32.267 31.957 57.381 77.444 60.711 127.17 3.131 46.735-12.167 92.086-38.494 127.277-54.297 72.58-140.383 104.321-221.104 110.895-63.99 5.212-129.603-4.195-192.189-19.607-32.389-7.974-68.453-21.205-101.424-21.217-54.712-.022-117.121 37.081-159.126 75.818-6.162 5.681-12.747 11.302-18.258 17.832-15.665-22.752-28.855-49.718-30.585-79.206-54.579-15.489-109.27-51.38-139.133-107.725-20.74-39.13-28.938-85.38-19.446-130.273 12.309-58.212 48.155-100.52 91.494-130.657 11.004-7.651 22.413-13.609 34.323-19.1C186.003 66.016 235.425 70.98 293.515 72.4c30.632.748 61.312.407 91.939 1.487Z" fill="url(#a)"/><defs><linearGradient id="a" x1="454.637" y1="30.206" x2="476.279" y2="542.978" gradientUnits="userSpaceOnUse"><stop stop-color="#1B4F46"/><stop offset="1" stop-color="#296C52"/></linearGradient></defs></svg>